<svg xmlns="http://www.w3.org/2000/svg" width="768" height="128" viewBox="0 0 768 128">
<defs>
  <linearGradient id="steel" x1="0" y1="0" x2="1" y2="1"><stop offset="0" stop-color="#f4f7fb"/><stop offset="0.35" stop-color="#aab5c4"/><stop offset="0.65" stop-color="#596779"/><stop offset="1" stop-color="#d9e0e9"/></linearGradient>
  <linearGradient id="darksteel" x1="0" y1="0" x2="0" y2="1"><stop offset="0" stop-color="#596579"/><stop offset="0.5" stop-color="#2f3744"/><stop offset="1" stop-color="#181d25"/></linearGradient>
  <linearGradient id="cape" x1="0" y1="0" x2="0" y2="1"><stop offset="0" stop-color="#c13a32"/><stop offset="0.55" stop-color="#8b211f"/><stop offset="1" stop-color="#561416"/></linearGradient>
  <linearGradient id="leather" x1="0" y1="0" x2="1" y2="1"><stop offset="0" stop-color="#8a5b35"/><stop offset="0.55" stop-color="#5e3823"/><stop offset="1" stop-color="#342016"/></linearGradient>
  <linearGradient id="hair" x1="0" y1="0" x2="0" y2="1"><stop offset="0" stop-color="#a96536"/><stop offset="0.5" stop-color="#713a25"/><stop offset="1" stop-color="#40231b"/></linearGradient>
  <g id="sword">
    <path d="M47 67 L51 67 L55 113 L50 124 L45 113 Z" fill="url(#steel)" stroke="#151922" stroke-width="2"/>
    <path d="M48 71 L50 71 L51 112 L49 116 Z" fill="#ffffff" opacity=".75"/>
    <rect x="38" y="63" width="20" height="5" rx="2" fill="#d6a942" stroke="#342516" stroke-width="2"/>
    <rect x="47" y="53" width="3" height="14" rx="1" fill="#6f4328" stroke="#2d1a12" stroke-width="1.5"/>
    <circle cx="48.5" cy="52" r="3.2" fill="#d6a942" stroke="#342516" stroke-width="1.5"/>
  </g>
  <g id="bodyFront">
    <ellipse cx="48" cy="119" rx="25" ry="6" fill="#10151b" opacity=".34"/>
    <path d="M30 43 Q23 57 25 86 L19 105 Q30 101 35 94 L39 107 L48 97 L58 107 L63 94 Q69 101 78 105 L71 84 Q72 59 65 43 Z" fill="url(#cape)" stroke="#3b1416" stroke-width="2"/>
    <path d="M38 83 L32 115 L43 117 L48 92 L53 117 L64 115 L58 83 Z" fill="#242a32" stroke="#13171d" stroke-width="2"/>
    <path d="M29 111 L43 111 L43 122 L28 122 Q25 118 29 111 Z" fill="url(#leather)" stroke="#2b1b13" stroke-width="2"/>
    <path d="M53 111 L67 111 Q71 118 67 122 L52 122 Z" fill="url(#leather)" stroke="#2b1b13" stroke-width="2"/>
    <path d="M29 45 Q48 35 67 45 L64 83 Q48 90 32 83 Z" fill="url(#darksteel)" stroke="#151a21" stroke-width="2"/>
    <path d="M34 48 L48 42 L62 48 L58 61 L48 66 L38 61 Z" fill="#3f4a59" stroke="#8b98a9" stroke-width="1.4"/>
    <path d="M47 43 L50 43 L52 82 L45 82 Z" fill="#c89a39" opacity=".9"/>
    <path d="M31 48 Q22 48 20 61 L25 67 L35 62 Z" fill="url(#steel)" stroke="#1c222b" stroke-width="2"/>
    <path d="M65 48 Q74 48 76 61 L71 67 L61 62 Z" fill="url(#steel)" stroke="#1c222b" stroke-width="2"/>
    <path d="M25 63 L30 79 L37 76 L34 59 Z" fill="url(#darksteel)" stroke="#151a21" stroke-width="2"/>
    <path d="M71 63 L66 79 L59 76 L62 59 Z" fill="url(#darksteel)" stroke="#151a21" stroke-width="2"/>
    <rect x="25" y="75" width="12" height="10" rx="4" fill="url(#leather)" stroke="#2d1a12" stroke-width="2"/>
    <rect x="59" y="75" width="12" height="10" rx="4" fill="url(#leather)" stroke="#2d1a12" stroke-width="2"/>
    <ellipse cx="48" cy="31" rx="14" ry="15" fill="#efb083" stroke="#4a2b23" stroke-width="2"/>
    <path d="M33 30 Q34 14 48 13 Q63 14 64 29 L58 24 L54 31 L49 23 L43 30 L38 23 Z" fill="url(#hair)" stroke="#3c2119" stroke-width="2"/>
    <path d="M35 20 Q42 7 55 12 L62 20 L55 18 L52 11 L47 19 L42 12 L40 21 Z" fill="url(#hair)"/>
    <path d="M39 34 L44 34" stroke="#3f251d" stroke-width="2"/><path d="M52 34 L57 34" stroke="#3f251d" stroke-width="2"/>
    <circle cx="42" cy="33" r="1.7" fill="#3ab07a"/><circle cx="54" cy="33" r="1.7" fill="#3ab07a"/>
    <path d="M39 42 Q48 46 57 42" fill="none" stroke="#8a4c38" stroke-width="1.5"/>
    <path d="M29 83 L67 83" stroke="#d2a84a" stroke-width="3"/><circle cx="48" cy="83" r="4" fill="#d8ad45" stroke="#493318" stroke-width="2"/>
  </g>
  <g id="bodyBack">
    <ellipse cx="48" cy="119" rx="25" ry="6" fill="#10151b" opacity=".34"/>
    <path d="M27 39 Q48 30 69 39 L76 94 L63 106 L57 94 L48 106 L39 94 L32 106 L20 94 Z" fill="url(#cape)" stroke="#3b1416" stroke-width="2"/>
    <path d="M37 85 L31 116 L43 119 L48 94 L53 119 L65 116 L59 85 Z" fill="#252b33" stroke="#13171d" stroke-width="2"/>
    <path d="M28 111 L43 111 L43 122 L28 122 Q25 118 28 111 Z" fill="url(#leather)" stroke="#2b1b13" stroke-width="2"/>
    <path d="M53 111 L68 111 Q71 118 68 122 L53 122 Z" fill="url(#leather)" stroke="#2b1b13" stroke-width="2"/>
    <path d="M33 45 Q48 36 63 45 L61 71 Q48 77 35 71 Z" fill="url(#darksteel)" stroke="#151a21" stroke-width="2"/>
    <path d="M32 46 Q23 47 21 60 L27 66 L37 59 Z" fill="url(#steel)" stroke="#1c222b" stroke-width="2"/>
    <path d="M64 46 Q73 47 75 60 L69 66 L59 59 Z" fill="url(#steel)" stroke="#1c222b" stroke-width="2"/>
    <ellipse cx="48" cy="30" rx="14" ry="15" fill="#6b3a25" stroke="#3c2119" stroke-width="2"/>
    <path d="M33 30 Q35 13 48 12 Q62 13 64 30 L58 23 L54 29 L49 21 L43 29 L38 22 Z" fill="url(#hair)" stroke="#3c2119" stroke-width="2"/>
  </g>
  <g id="hands"><ellipse cx="44" cy="65" rx="5" ry="6" fill="#6e4328" stroke="#291a12" stroke-width="2"/><ellipse cx="53" cy="70" rx="5" ry="6" fill="#6e4328" stroke="#291a12" stroke-width="2"/></g>
</defs>

<!-- S -->
<g transform="translate(0,0)"><use href="#bodyFront"/><use href="#sword"/><use href="#hands"/></g>
<!-- SE -->
<g transform="translate(96,0)"><use href="#bodyFront"/><g transform="rotate(-24 49 64)"><use href="#sword"/></g><g transform="translate(2,0)"><use href="#hands"/></g></g>
<!-- E -->
<g transform="translate(192,0)"><g transform="translate(2,0) scale(.96,1)"><use href="#bodyFront"/></g><g transform="rotate(-47 49 64)"><use href="#sword"/></g><use href="#hands"/></g>
<!-- NE -->
<g transform="translate(288,0)"><g transform="translate(1,0)"><use href="#bodyFront"/></g><g transform="rotate(-78 49 64)"><use href="#sword"/></g><use href="#hands"/></g>
<!-- N -->
<g transform="translate(384,0)"><use href="#bodyBack"/><g transform="rotate(-18 49 64)"><use href="#sword"/></g><use href="#hands"/></g>
<!-- NW -->
<g transform="translate(576,0) scale(-1,1)"><g transform="translate(1,0)"><use href="#bodyFront"/></g><g transform="rotate(-78 49 64)"><use href="#sword"/></g><use href="#hands"/></g>
<!-- W -->
<g transform="translate(672,0) scale(-1,1)"><g transform="translate(2,0) scale(.96,1)"><use href="#bodyFront"/></g><g transform="rotate(-47 49 64)"><use href="#sword"/></g><use href="#hands"/></g>
<!-- SW -->
<g transform="translate(768,0) scale(-1,1)"><use href="#bodyFront"/><g transform="rotate(-24 49 64)"><use href="#sword"/></g><g transform="translate(2,0)"><use href="#hands"/></g></g>
</svg>
