<svg xmlns="http://www.w3.org/2000/svg" width="320" height="256" viewBox="0 0 320 256"><defs><linearGradient id="fur" x1="0" y1="0" x2="1" y2="1"><stop stop-color="#725340"/><stop offset=".55" stop-color="#4d382f"/><stop offset="1" stop-color="#2d2625"/></linearGradient></defs><ellipse cx="155" cy="151" rx="102" ry="67" fill="url(#fur)" stroke="#2a2422" stroke-width="8"/><path d="M82 105 L54 62 L105 83 Z M222 89 L268 58 L242 112 Z" fill="#4a332c" stroke="#2a2422" stroke-width="7"/><ellipse cx="238" cy="151" rx="58" ry="48" fill="#684a3a"/><ellipse cx="255" cy="164" rx="35" ry="25" fill="#a27d68"/><circle cx="247" cy="159" r="5" fill="#2b2322"/><circle cx="267" cy="159" r="5" fill="#2b2322"/><circle cx="216" cy="137" r="8" fill="#171717"/><circle cx="212" cy="133" r="3" fill="#f2e8d8"/><path d="M231 178 Q214 198 199 183" fill="none" stroke="#ead8b7" stroke-width="7" stroke-linecap="round"/><path d="M278 178 Q293 197 303 178" fill="none" stroke="#ead8b7" stroke-width="7" stroke-linecap="round"/><path d="M89 110 L68 87 M113 100 L97 71 M144 94 L137 61 M175 95 L180 61" stroke="#8a6953" stroke-width="8" stroke-linecap="round" opacity=".7"/><path d="M93 205 L88 236 M138 211 L136 239 M190 210 L194 239 M224 199 L230 232" stroke="#392b28" stroke-width="13" stroke-linecap="round"/></svg>