<svg xmlns="http://www.w3.org/2000/svg" width="2048" height="320" viewBox="0 0 2048 320"><defs><linearGradient id="cloak" x1="0" y1="0" x2="1" y2="1"><stop stop-color="#476b52"/><stop offset=".5" stop-color="#2f513f"/><stop offset="1" stop-color="#20392f"/></linearGradient><linearGradient id="leather"><stop stop-color="#9a6b43"/><stop offset="1" stop-color="#5d3b29"/></linearGradient></defs>
<g transform="translate(0 0)"><ellipse cx="128" cy="111" rx="40" ry="43" fill="#d7aa7f"/><path d="M88 105 Q95 55 128 54 Q166 57 170 108 L151 91 L128 103 L105 91 Z" fill="#49352b"/><path d="M78 273 Q82 156 128 142 Q176 158 180 273 L153 288 L128 268 L102 288 Z" fill="url(#cloak)" stroke="#1d3329" stroke-width="7"/><path d="M94 169 L162 169 L158 186 L99 186 Z" fill="#b9934e"/><circle cx="113" cy="113" r="5" fill="#26322d"/><circle cx="144" cy="113" r="5" fill="#26322d"/><path d="M111 133 Q128 142 145 133" fill="none" stroke="#945f51" stroke-width="5"/><path d="M82 185 L54 240" stroke="#6a4932" stroke-width="12"/><path d="M174 182 L198 232" stroke="#8d633e" stroke-width="11"/><path d="M189 218 L211 263" stroke="#c8d2c8" stroke-width="7"/><path d="M105 274 L101 305 M151 274 L156 305" stroke="#3a302a" stroke-width="15"/></g>
<g transform="translate(256 0)"><ellipse cx="133" cy="110" rx="39" ry="43" fill="#d7aa7f"/><path d="M94 103 Q101 58 132 55 Q167 61 172 109 L151 92 L126 99 L105 89 Z" fill="#49352b"/><path d="M82 274 Q88 158 132 143 Q177 158 181 274 L155 289 L127 270 L104 287 Z" fill="url(#cloak)" stroke="#1d3329" stroke-width="7"/><path d="M103 169 L168 165 L166 182 L107 187 Z" fill="#b9934e"/><circle cx="145" cy="112" r="6" fill="#26322d"/><path d="M143 133 Q153 138 161 129" fill="none" stroke="#945f51" stroke-width="5"/><path d="M177 180 L209 233" stroke="#8d633e" stroke-width="12"/><path d="M198 217 L222 261" stroke="#c8d2c8" stroke-width="7"/><path d="M110 275 L106 304 M157 274 L165 304" stroke="#3a302a" stroke-width="15"/></g>
<g transform="translate(512 0)"><ellipse cx="138" cy="111" rx="34" ry="42" fill="#d7aa7f"/><path d="M103 105 Q110 61 138 57 Q166 62 176 102 L147 91 L128 101 Z" fill="#49352b"/><path d="M87 274 Q91 159 135 144 Q176 159 183 273 L155 290 L130 272 L108 286 Z" fill="url(#cloak)" stroke="#1d3329" stroke-width="7"/><circle cx="157" cy="112" r="6" fill="#26322d"/><path d="M168 132 Q177 128 181 120" fill="none" stroke="#945f51" stroke-width="5"/><path d="M181 181 L214 238" stroke="#8d633e" stroke-width="12"/><path d="M204 223 L225 267" stroke="#c8d2c8" stroke-width="7"/><path d="M113 275 L110 304 M160 274 L166 304" stroke="#3a302a" stroke-width="15"/></g>
<g transform="translate(768 0)"><ellipse cx="132" cy="111" rx="37" ry="42" fill="#d0a27a"/><path d="M95 108 Q100 63 132 55 Q169 61 173 112 L151 99 L125 93 L103 101 Z" fill="#49352b"/><path d="M81 274 Q88 160 130 145 Q174 158 181 273 L153 289 L126 272 L104 287 Z" fill="url(#cloak)" stroke="#1d3329" stroke-width="7"/><circle cx="151" cy="111" r="5" fill="#26322d"/><path d="M175 178 L208 226" stroke="#7d5739" stroke-width="11"/><path d="M111 275 L106 304 M155 274 L162 304" stroke="#3a302a" stroke-width="15"/></g>
<g transform="translate(1024 0)"><ellipse cx="128" cy="109" rx="39" ry="42" fill="#6a4b38"/><path d="M89 107 Q92 58 128 53 Q166 58 169 110 L149 99 L128 89 L107 99 Z" fill="#49352b"/><path d="M78 273 Q83 154 128 140 Q174 155 180 273 L155 289 L128 270 L102 289 Z" fill="url(#cloak)" stroke="#1d3329" stroke-width="7"/><path d="M98 168 L159 168 L154 185 L102 185 Z" fill="#9e7f45"/><path d="M80 184 L56 235" stroke="#6a4932" stroke-width="11"/><path d="M176 183 L200 233" stroke="#7f5839" stroke-width="11"/><path d="M105 274 L101 305 M151 274 L156 305" stroke="#3a302a" stroke-width="15"/></g>
<g transform="translate(1280 0)"><ellipse cx="124" cy="111" rx="37" ry="42" fill="#d0a27a"/><path d="M87 111 Q92 62 124 55 Q158 61 162 107 L143 101 L119 93 L96 100 Z" fill="#49352b"/><path d="M75 273 Q82 159 126 145 Q168 160 175 274 L151 288 L126 271 L99 289 Z" fill="url(#cloak)" stroke="#1d3329" stroke-width="7"/><circle cx="105" cy="111" r="5" fill="#26322d"/><path d="M78 180 L47 228" stroke="#7d5739" stroke-width="11"/><path d="M102 275 L95 304 M148 274 L153 304" stroke="#3a302a" stroke-width="15"/></g>
<g transform="translate(1536 0)"><ellipse cx="118" cy="111" rx="34" ry="42" fill="#d7aa7f"/><path d="M80 102 Q90 62 118 57 Q146 61 153 105 L128 101 L109 91 Z" fill="#49352b"/><path d="M73 273 Q80 159 121 144 Q165 159 169 274 L148 286 L123 272 L95 290 Z" fill="url(#cloak)" stroke="#1d3329" stroke-width="7"/><circle cx="99" cy="112" r="6" fill="#26322d"/><path d="M75 132 Q83 128 87 120" fill="none" stroke="#945f51" stroke-width="5"/><path d="M75 181 L42 238" stroke="#8d633e" stroke-width="12"/><path d="M52 223 L31 267" stroke="#c8d2c8" stroke-width="7"/><path d="M96 275 L90 304 M143 274 L146 304" stroke="#3a302a" stroke-width="15"/></g>
<g transform="translate(1792 0)"><ellipse cx="123" cy="110" rx="39" ry="43" fill="#d7aa7f"/><path d="M84 109 Q89 60 124 55 Q155 58 162 103 L151 89 L130 99 L105 92 Z" fill="#49352b"/><path d="M75 274 Q79 158 124 143 Q168 158 174 274 L150 287 L125 270 L97 289 Z" fill="url(#cloak)" stroke="#1d3329" stroke-width="7"/><path d="M88 165 L153 169 L149 186 L90 181 Z" fill="#b9934e"/><circle cx="108" cy="112" r="6" fill="#26322d"/><path d="M94 129 Q102 138 112 133" fill="none" stroke="#945f51" stroke-width="5"/><path d="M78 180 L47 233" stroke="#8d633e" stroke-width="12"/><path d="M58 217 L34 261" stroke="#c8d2c8" stroke-width="7"/><path d="M94 274 L86 304 M141 275 L145 304" stroke="#3a302a" stroke-width="15"/></g></svg>